<mxfile host="app.diagrams.net" modified="2022-11-23T19:08:36.854Z" agent="5.0 (Macintosh; Intel Mac OS X 10_15_7) AppleWebKit/605.1.15 (KHTML, like Gecko) Version/16.1 Safari/605.1.15" etag="N_kM0t7moWgnP18PxZ55" version="20.5.3" type="github">
  <diagram name="Page-1" id="bfe91b75-5d2c-26a0-9c1d-138518896778">
    <mxGraphModel dx="4680" dy="2485" grid="1" gridSize="10" guides="1" tooltips="1" connect="1" arrows="1" fold="1" page="1" pageScale="1" pageWidth="1100" pageHeight="850" background="none" math="0" shadow="0">
      <root>
        <mxCell id="0" />
        <mxCell id="1" parent="0" />
        <mxCell id="7c3789c024ecab99-82" value="&lt;font style=&quot;font-size: 40px;&quot;&gt;&lt;b&gt;&lt;u&gt;Balanceo de Carga&lt;/u&gt;&lt;/b&gt;&lt;/font&gt;" style="rounded=1;whiteSpace=wrap;html=1;shadow=0;comic=0;strokeColor=#036897;strokeWidth=2;fillColor=none;fontFamily=Verdana;fontSize=28;fontColor=#6881B3;align=center;arcSize=11;verticalAlign=top;" parent="1" vertex="1">
          <mxGeometry x="-70" y="360" width="880" height="970" as="geometry" />
        </mxCell>
        <mxCell id="RNAvwY5ogVoFwGdkrAzX-10" value="&lt;font style=&quot;font-size: 40px;&quot;&gt;&lt;b&gt;&lt;u&gt;Alta Disponibilidad&lt;/u&gt;&lt;/b&gt;&lt;/font&gt;" style="rounded=1;whiteSpace=wrap;html=1;shadow=0;comic=0;strokeColor=#036897;strokeWidth=2;fillColor=none;fontFamily=Verdana;fontSize=28;fontColor=#6881B3;align=center;arcSize=11;verticalAlign=top;" vertex="1" parent="1">
          <mxGeometry x="1050" y="430" width="1050" height="830" as="geometry" />
        </mxCell>
        <mxCell id="RNAvwY5ogVoFwGdkrAzX-16" style="edgeStyle=orthogonalEdgeStyle;rounded=0;orthogonalLoop=1;jettySize=auto;html=1;exitX=0.88;exitY=0.5;exitDx=0;exitDy=0;exitPerimeter=0;entryX=0.88;entryY=0.5;entryDx=0;entryDy=0;entryPerimeter=0;strokeWidth=5;fontSize=40;startArrow=classic;startFill=1;" edge="1" parent="1" source="7c3789c024ecab99-58" target="RNAvwY5ogVoFwGdkrAzX-9">
          <mxGeometry relative="1" as="geometry">
            <Array as="points">
              <mxPoint x="2060" y="670" />
              <mxPoint x="2060" y="1060" />
            </Array>
          </mxGeometry>
        </mxCell>
        <mxCell id="RNAvwY5ogVoFwGdkrAzX-18" value="Replicación" style="edgeLabel;html=1;align=center;verticalAlign=middle;resizable=0;points=[];fontSize=40;" vertex="1" connectable="0" parent="RNAvwY5ogVoFwGdkrAzX-16">
          <mxGeometry x="-0.0201" y="-6" relative="1" as="geometry">
            <mxPoint x="-74" y="-49" as="offset" />
          </mxGeometry>
        </mxCell>
        <mxCell id="RNAvwY5ogVoFwGdkrAzX-22" style="edgeStyle=orthogonalEdgeStyle;rounded=0;orthogonalLoop=1;jettySize=auto;html=1;exitX=0;exitY=0.5;exitDx=0;exitDy=0;exitPerimeter=0;entryX=0;entryY=0.5;entryDx=0;entryDy=0;entryPerimeter=0;strokeWidth=5;fontSize=40;startArrow=classic;startFill=1;" edge="1" parent="1" source="7c3789c024ecab99-58" target="RNAvwY5ogVoFwGdkrAzX-8">
          <mxGeometry relative="1" as="geometry">
            <Array as="points">
              <mxPoint x="1090" y="670" />
              <mxPoint x="1090" y="1060" />
            </Array>
          </mxGeometry>
        </mxCell>
        <mxCell id="RNAvwY5ogVoFwGdkrAzX-23" value="Replicación" style="edgeLabel;html=1;align=center;verticalAlign=middle;resizable=0;points=[];fontSize=40;" vertex="1" connectable="0" parent="RNAvwY5ogVoFwGdkrAzX-22">
          <mxGeometry x="-0.4626" y="10" relative="1" as="geometry">
            <mxPoint x="-65" y="-10" as="offset" />
          </mxGeometry>
        </mxCell>
        <mxCell id="7c3789c024ecab99-58" value="&lt;font style=&quot;font-size: 40px;&quot;&gt;Servidor BD&lt;/font&gt;" style="fontColor=#0066CC;verticalAlign=top;verticalLabelPosition=bottom;labelPosition=center;align=center;html=1;fillColor=#CCCCCC;strokeColor=#6881B3;gradientColor=none;gradientDirection=north;strokeWidth=2;shape=mxgraph.networks.server_storage;rounded=0;shadow=0;comic=0;" parent="1" vertex="1">
          <mxGeometry x="1455" y="540" width="270" height="260" as="geometry" />
        </mxCell>
        <mxCell id="RNAvwY5ogVoFwGdkrAzX-12" value="" style="edgeStyle=orthogonalEdgeStyle;rounded=0;orthogonalLoop=1;jettySize=auto;html=1;fontSize=40;entryX=1;entryY=0.5;entryDx=0;entryDy=0;strokeWidth=12;entryPerimeter=0;exitX=0;exitY=0.5;exitDx=0;exitDy=0;startArrow=classic;startFill=1;" edge="1" parent="1" source="7c3789c024ecab99-82" target="7c3789c024ecab99-61">
          <mxGeometry relative="1" as="geometry">
            <mxPoint x="520" y="670" as="sourcePoint" />
            <mxPoint x="530" y="875" as="targetPoint" />
          </mxGeometry>
        </mxCell>
        <mxCell id="7c3789c024ecab99-61" value="&lt;font style=&quot;font-size: 40px;&quot;&gt;Usuario&lt;/font&gt;" style="fontColor=#0066CC;verticalAlign=top;verticalLabelPosition=bottom;labelPosition=center;align=center;html=1;fillColor=#CCCCCC;strokeColor=#6881B3;gradientColor=none;gradientDirection=north;strokeWidth=2;shape=mxgraph.networks.pc;rounded=0;shadow=0;comic=0;" parent="1" vertex="1">
          <mxGeometry x="-600" y="710" width="300" height="270" as="geometry" />
        </mxCell>
        <mxCell id="RNAvwY5ogVoFwGdkrAzX-3" value="Servidor Web" style="fontColor=#0066CC;verticalAlign=top;verticalLabelPosition=bottom;labelPosition=center;align=center;html=1;outlineConnect=0;fillColor=#CCCCCC;strokeColor=#6881B3;gradientColor=none;gradientDirection=north;strokeWidth=2;shape=mxgraph.networks.web_server;fontSize=40;" vertex="1" parent="1">
          <mxGeometry x="420" y="550" width="260" height="270" as="geometry" />
        </mxCell>
        <mxCell id="RNAvwY5ogVoFwGdkrAzX-6" value="Servidor Web" style="fontColor=#0066CC;verticalAlign=top;verticalLabelPosition=bottom;labelPosition=center;align=center;html=1;outlineConnect=0;fillColor=#CCCCCC;strokeColor=#6881B3;gradientColor=none;gradientDirection=north;strokeWidth=2;shape=mxgraph.networks.web_server;fontSize=40;" vertex="1" parent="1">
          <mxGeometry x="420" y="970" width="260" height="270" as="geometry" />
        </mxCell>
        <mxCell id="RNAvwY5ogVoFwGdkrAzX-17" style="edgeStyle=orthogonalEdgeStyle;rounded=0;orthogonalLoop=1;jettySize=auto;html=1;exitX=0.88;exitY=0.5;exitDx=0;exitDy=0;exitPerimeter=0;entryX=0;entryY=0.5;entryDx=0;entryDy=0;entryPerimeter=0;strokeWidth=5;fontSize=40;startArrow=classic;startFill=1;" edge="1" parent="1" source="RNAvwY5ogVoFwGdkrAzX-8" target="RNAvwY5ogVoFwGdkrAzX-9">
          <mxGeometry relative="1" as="geometry" />
        </mxCell>
        <mxCell id="RNAvwY5ogVoFwGdkrAzX-20" value="Replicación" style="edgeLabel;html=1;align=center;verticalAlign=middle;resizable=0;points=[];fontSize=40;" vertex="1" connectable="0" parent="RNAvwY5ogVoFwGdkrAzX-17">
          <mxGeometry x="-0.1032" y="-8" relative="1" as="geometry">
            <mxPoint x="20" y="-8" as="offset" />
          </mxGeometry>
        </mxCell>
        <mxCell id="RNAvwY5ogVoFwGdkrAzX-8" value="&lt;font style=&quot;font-size: 40px;&quot;&gt;Servidor BD&lt;/font&gt;" style="fontColor=#0066CC;verticalAlign=top;verticalLabelPosition=bottom;labelPosition=center;align=center;html=1;fillColor=#CCCCCC;strokeColor=#6881B3;gradientColor=none;gradientDirection=north;strokeWidth=2;shape=mxgraph.networks.server_storage;rounded=0;shadow=0;comic=0;" vertex="1" parent="1">
          <mxGeometry x="1150" y="930" width="270" height="260" as="geometry" />
        </mxCell>
        <mxCell id="RNAvwY5ogVoFwGdkrAzX-9" value="&lt;font style=&quot;font-size: 40px;&quot;&gt;Servidor BD&lt;/font&gt;" style="fontColor=#0066CC;verticalAlign=top;verticalLabelPosition=bottom;labelPosition=center;align=center;html=1;fillColor=#CCCCCC;strokeColor=#6881B3;gradientColor=none;gradientDirection=north;strokeWidth=2;shape=mxgraph.networks.server_storage;rounded=0;shadow=0;comic=0;" vertex="1" parent="1">
          <mxGeometry x="1730" y="930" width="270" height="260" as="geometry" />
        </mxCell>
        <mxCell id="RNAvwY5ogVoFwGdkrAzX-13" value="" style="edgeStyle=orthogonalEdgeStyle;rounded=0;orthogonalLoop=1;jettySize=auto;html=1;fontSize=40;entryX=1;entryY=0.5;entryDx=0;entryDy=0;strokeWidth=12;exitX=0;exitY=0.5;exitDx=0;exitDy=0;startArrow=classic;startFill=1;" edge="1" parent="1" source="RNAvwY5ogVoFwGdkrAzX-10" target="7c3789c024ecab99-82">
          <mxGeometry relative="1" as="geometry">
            <mxPoint x="650" y="855" as="sourcePoint" />
            <mxPoint x="410" y="855" as="targetPoint" />
          </mxGeometry>
        </mxCell>
        <mxCell id="RNAvwY5ogVoFwGdkrAzX-25" style="edgeStyle=orthogonalEdgeStyle;rounded=0;orthogonalLoop=1;jettySize=auto;html=1;exitX=1;exitY=0.5;exitDx=0;exitDy=0;exitPerimeter=0;entryX=0;entryY=0.5;entryDx=0;entryDy=0;entryPerimeter=0;strokeWidth=5;fontSize=40;startArrow=classic;startFill=1;" edge="1" parent="1" source="RNAvwY5ogVoFwGdkrAzX-24" target="RNAvwY5ogVoFwGdkrAzX-3">
          <mxGeometry relative="1" as="geometry" />
        </mxCell>
        <mxCell id="RNAvwY5ogVoFwGdkrAzX-26" style="edgeStyle=orthogonalEdgeStyle;rounded=0;orthogonalLoop=1;jettySize=auto;html=1;exitX=1;exitY=0.5;exitDx=0;exitDy=0;exitPerimeter=0;entryX=0;entryY=0.5;entryDx=0;entryDy=0;entryPerimeter=0;strokeWidth=5;fontSize=40;startArrow=classic;startFill=1;" edge="1" parent="1" source="RNAvwY5ogVoFwGdkrAzX-24" target="RNAvwY5ogVoFwGdkrAzX-6">
          <mxGeometry relative="1" as="geometry" />
        </mxCell>
        <mxCell id="RNAvwY5ogVoFwGdkrAzX-24" value="Balanceador &lt;br&gt;de Carga" style="fontColor=#0066CC;verticalAlign=top;verticalLabelPosition=bottom;labelPosition=center;align=center;html=1;outlineConnect=0;fillColor=#CCCCCC;strokeColor=#6881B3;gradientColor=none;gradientDirection=north;strokeWidth=2;shape=mxgraph.networks.server;fontSize=40;" vertex="1" parent="1">
          <mxGeometry x="-10" y="710" width="190" height="220" as="geometry" />
        </mxCell>
      </root>
    </mxGraphModel>
  </diagram>
</mxfile>
